<svg width="22" height="20" viewBox="0 0 22 20" fill="none" xmlns="http://www.w3.org/2000/svg">
<path d="M17.8181 6.27145C18.2199 6.17099 18.6271 6.41531 18.7276 6.81716C18.8281 7.219 18.5837 7.6262 18.1819 7.72667L14.1819 8.72667C13.7801 8.82713 13.3729 8.58281 13.2724 8.18096C13.1719 7.77911 13.4163 7.37191 13.8181 7.27145L17.8181 6.27145Z" fill="#6A0BFF"/>
<path d="M17.8181 10.2715C18.2199 10.171 18.6271 10.4153 18.7276 10.8172C18.8281 11.219 18.5837 11.6262 18.1819 11.7267L14.1819 12.7267C13.7801 12.8271 13.3729 12.5828 13.2724 12.181C13.1719 11.7791 13.4163 11.3719 13.8181 11.2715L17.8181 10.2715Z" fill="#6A0BFF"/>
<path d="M3.27239 6.81716C3.37285 6.41531 3.78006 6.17099 4.1819 6.27145L8.1819 7.27145C8.58375 7.37191 8.82807 7.77911 8.72761 8.18096C8.62715 8.58281 8.21994 8.82713 7.8181 8.72667L3.8181 7.72667C3.41625 7.6262 3.17193 7.219 3.27239 6.81716Z" fill="#6A0BFF"/>
<path d="M3.27239 10.8172C3.37285 10.4153 3.78006 10.171 4.1819 10.2715L8.1819 11.2715C8.58375 11.3719 8.82807 11.7791 8.72761 12.181C8.62715 12.5828 8.21994 12.8271 7.8181 12.7267L3.8181 11.7267C3.41625 11.6262 3.17193 11.219 3.27239 10.8172Z" fill="#6A0BFF"/>
<path fill-rule="evenodd" clip-rule="evenodd" d="M21.75 2.93225C21.75 1.46895 20.5847 0.214006 19.0559 0.26726C17.9175 0.306912 16.4296 0.425328 15.2849 0.768009C14.2899 1.0659 13.1706 1.64774 12.2982 2.15268C11.4801 2.62615 10.4617 2.64976 9.63284 2.2115C8.63736 1.68512 7.32766 1.06117 6.19136 0.761326C5.23055 0.507786 4.01517 0.386006 3.02841 0.32536C1.47017 0.22959 0.25 1.4977 0.25 2.99686V14.1426C0.25 15.6789 1.49378 16.8782 2.96804 16.9704C3.9268 17.0304 5.00566 17.1457 5.80864 17.3576C6.8012 17.6195 8.0286 18.2019 9.01962 18.7301C10.2529 19.3876 11.7471 19.3876 12.9804 18.7301C13.9714 18.2019 15.1988 17.6195 16.1914 17.3576C16.9943 17.1457 18.0732 17.0304 19.032 16.9704C20.5062 16.8782 21.75 15.6789 21.75 14.1426V2.93225ZM19.1081 1.76635C19.7229 1.74494 20.25 2.25066 20.25 2.93225V14.1426C20.25 14.8284 19.6817 15.4268 18.9383 15.4733C17.9582 15.5346 16.7591 15.6564 15.8086 15.9072C14.6383 16.2161 13.2827 16.8692 12.2748 17.4065C12.1065 17.4961 11.9305 17.5668 11.75 17.6184V3.94109C12.2023 3.85055 12.6421 3.68674 13.0495 3.45094C13.9 2.95874 14.8949 2.45055 15.7151 2.205C16.6643 1.92085 17.9892 1.80532 19.1081 1.76635ZM10.25 3.97404C9.79499 3.90328 9.34899 3.75821 8.93167 3.53753C7.95486 3.02102 6.77076 2.46556 5.80864 2.21168C4.99643 1.99735 3.90238 1.8819 2.93639 1.82253C2.30243 1.78357 1.75 2.29968 1.75 2.99686V14.1426C1.75 14.8284 2.31831 15.4268 3.06168 15.4733C4.04176 15.5346 5.24092 15.6564 6.19136 15.9072C7.3617 16.2161 8.71727 16.8692 9.72521 17.4065C9.89346 17.4961 10.0695 17.5668 10.25 17.6184V3.97404Z" fill="#6A0BFF"/>
</svg>
