<svg width="87" height="78" viewBox="0 0 87 78" fill="none" xmlns="http://www.w3.org/2000/svg">
<g filter="url(#filter0_d_18474_13237)">
<path d="M73.9998 74H13V9.20861C13 7.98885 14.1988 7 15.6774 7H71.3226C72.8013 7 74 7.98885 74 9.20861V74H73.9998Z" fill="white"/>
</g>
<path d="M71.211 7H64C65.5403 7 66.789 7.98885 66.789 9.20861V74H74V9.20861C74 7.98885 72.7513 7 71.211 7Z" fill="white"/>
<path d="M87 29.1543V73.3422C87 74.1807 86.7602 74.9632 86.3436 75.6249L84.299 77.3298C83.8071 77.5277 83.2679 77.6362 82.706 77.6362H4.29398C3.67255 77.6362 3.08264 77.5049 2.55048 77.2651L0.582917 75.5023C0.211811 74.8686 0 74.1299 0 73.3422V29.1543C0 27.8886 0.547907 26.7508 1.41791 25.9648H85.5821C86.4521 26.7508 87 27.8886 87 29.1543Z" fill="#6A0BFF"/>
<path d="M86.343 75.6259C86.1452 75.941 85.9054 76.2298 85.6358 76.4819C85.2507 76.8425 84.7973 77.1313 84.2984 77.3309L78.5025 72.349L52.9347 50.3731C52.3815 49.904 52.3132 49.076 52.7824 48.5229C53.2515 47.9697 54.0795 47.9014 54.6327 48.3688L78.5025 68.8865L86.343 75.6259Z" fill="#C39DFF"/>
<path d="M86.3444 75.6262C86.1466 75.9412 85.9068 76.2301 85.6372 76.4822C85.2521 76.8428 84.7987 77.1316 84.2998 77.3311L78.5039 72.3492V68.8867L86.3444 75.6262Z" fill="#C39DFF"/>
<path d="M35.1667 48.5349L2.5496 77.266C2.11022 77.0716 1.70936 76.8056 1.36276 76.4817C1.05817 76.1964 0.793842 75.8673 0.582031 75.5032L33.4687 46.5324C34.0219 46.0632 34.8499 46.1315 35.319 46.6847C35.7881 47.2378 35.7199 48.0676 35.1667 48.5349Z" fill="#C39DFF"/>
<path d="M85.5821 25.9659L54.5352 50.1211L43.5001 58.7073L32.4649 50.1211L1.41797 25.9659C2.17944 25.2779 3.18948 24.8613 4.29404 24.8613H82.7061C83.8106 24.8613 84.8207 25.2779 85.5821 25.9659Z" fill="#883CFF"/>
<path d="M46.3326 61.6543V69.6313C46.3326 70.2773 45.6376 70.6834 45.0757 70.3648L44.3703 69.9657C44.099 69.8134 43.7996 69.7364 43.5003 69.7364C43.2009 69.7364 42.9016 69.8134 42.6303 69.9657L41.9248 70.3648C41.3629 70.6834 40.668 70.2773 40.668 69.6313V61.6543H46.3326Z" fill="#CB97E7"/>
<path d="M46.3323 61.6543V69.6313C46.3323 70.2773 45.6374 70.6834 45.0755 70.3648L44.37 69.9657C44.0987 69.8134 43.7993 69.7364 43.5 69.7364V61.6543H46.3323Z" fill="#BD80E1"/>
<path d="M39.1543 58.6665L38.6649 57.1928C38.4538 56.5572 38.8448 55.8797 39.5009 55.7448C41.4114 55.4193 41.4289 55.4067 42.6641 53.9185C43.1091 53.4178 43.8912 53.4178 44.3362 53.9185C45.5733 55.4102 45.5929 55.4193 47.4993 55.7448C48.1552 55.8797 48.5465 56.5572 48.3354 57.1928C47.6641 58.9909 47.6662 59.0506 48.3354 60.8452C48.5465 61.4808 48.1554 62.1582 47.4993 62.2932C45.5888 62.6186 45.5713 62.6312 44.3362 64.1195C43.8912 64.6201 43.1091 64.6201 42.6641 64.1195C41.427 62.6277 41.4074 62.6186 39.5009 62.2932C38.845 62.1582 38.4538 61.4808 38.6649 60.8452C38.7762 60.3586 39.3851 59.1663 39.1543 58.6665Z" fill="#FFD15B"/>
<path d="M48.3362 57.1928C48.5473 56.5572 48.1562 55.8797 47.5002 55.7448C45.5937 55.4193 45.5739 55.4104 44.337 53.9185C43.892 53.4178 43.1099 53.4178 42.6649 53.9185C42.1258 54.5682 41.8185 54.9367 41.4846 55.1727C41.9166 55.478 42.3915 55.5611 43.4672 55.7448C44.1231 55.8797 44.5143 56.5572 44.3032 57.1928C43.6319 58.9909 43.634 59.0506 44.3032 60.8452C44.5143 61.4808 44.1233 62.1582 43.4672 62.2932C42.3908 62.4765 41.9153 62.5605 41.4844 62.8653C41.818 63.1011 42.1258 63.4695 42.6649 64.1195C43.1099 64.6201 43.892 64.6201 44.337 64.1195C45.5722 62.6312 45.5897 62.6186 47.5002 62.2932C48.1561 62.1582 48.5473 61.4808 48.3362 60.8452C47.667 59.0504 47.6649 58.9909 48.3362 57.1928Z" fill="#FFC234"/>
<path d="M65.7 15.1726H21.2992C20.5741 15.1726 19.9863 14.5848 19.9863 13.8598C19.9863 13.1347 20.5741 12.5469 21.2992 12.5469H65.7C66.4252 12.5469 67.0129 13.1347 67.0129 13.8598C67.0129 14.5848 66.4252 15.1726 65.7 15.1726Z" fill="#6A0BFF"/>
<path d="M65.7001 20.4988H59.3988C58.6736 20.4988 58.0859 19.911 58.0859 19.1859C58.0859 18.4609 58.6736 17.873 59.3988 17.873H65.7001C66.4253 17.873 67.013 18.4609 67.013 19.1859C67.013 19.911 66.4253 20.4988 65.7001 20.4988Z" fill="#6A0BFF"/>
<path d="M53.6576 20.4988H21.315C20.5812 20.4988 19.9863 19.911 19.9863 19.1859C19.9863 18.4609 20.5812 17.873 21.315 17.873H53.6576C54.3916 17.873 54.9863 18.4609 54.9863 19.1859C54.9863 19.911 54.3916 20.4988 53.6576 20.4988Z" fill="#6A0BFF"/>
<defs>
<filter id="filter0_d_18474_13237" x="7.4" y="-2.6" width="72.2" height="78.2" filterUnits="userSpaceOnUse" color-interpolation-filters="sRGB">
<feFlood flood-opacity="0" result="BackgroundImageFix"/>
<feColorMatrix in="SourceAlpha" type="matrix" values="0 0 0 0 0 0 0 0 0 0 0 0 0 0 0 0 0 0 127 0" result="hardAlpha"/>
<feOffset dy="-4"/>
<feGaussianBlur stdDeviation="2.8"/>
<feComposite in2="hardAlpha" operator="out"/>
<feColorMatrix type="matrix" values="0 0 0 0 0.414141 0 0 0 0 0.389271 0 0 0 0 0.4625 0 0 0 0.05 0"/>
<feBlend mode="normal" in2="BackgroundImageFix" result="effect1_dropShadow_18474_13237"/>
<feBlend mode="normal" in="SourceGraphic" in2="effect1_dropShadow_18474_13237" result="shape"/>
</filter>
</defs>
</svg>
