<svg width='24px' height='24px' viewBox="0 0 30 32" fill="none" xmlns="http://www.w3.org/2000/svg">
<path fillRule="evenodd" clipRule="evenodd" d="M28.6224 8.8121C27.7098 9.43652 27.1313 10.1811 26.8965 11.0333C26.7596 11.53 26.7123 12.014 26.7956 12.0656C26.9236 12.1446 27.7884 11.6569 28.1957 11.2758C28.6371 10.8629 28.9824 10.2784 29.1381 9.68054C29.2387 9.29444 29.2696 8.46276 29.1834 8.46276C29.1557 8.46276 28.9033 8.61999 28.6224 8.8121ZM27.1795 11.2461C27.1314 11.2096 27.3643 10.765 27.5057 10.6237C27.7512 10.378 27.7402 10.4346 27.4592 10.8636C27.316 11.082 27.1902 11.2541 27.1795 11.2461Z" fill="#4600E9"/>
<path d="M7.72869 15.1501C7.71579 15.163 7.46221 15.1438 7.16511 15.1075L6.64648 15.044C6.63263 15.0423 6.61984 15.0357 6.61043 15.0254L6.31809 14.7056C5.68214 14.0097 4.98946 13.7875 3.4512 13.7862C2.31691 13.7851 2.28041 13.7994 2.47169 14.1709C2.94141 15.0831 4.00388 15.6637 5.20365 15.6637C5.52586 15.6637 5.94292 15.6239 6.1305 15.5753C6.32729 15.5242 6.51238 15.5087 6.56817 15.5385C6.62132 15.567 7.05617 15.6561 7.53452 15.7366L8.40421 15.8829L7.72869 15.1501Z" fill='white'/>
<path fillRule="evenodd" clipRule="evenodd" d="M6.97552 5.30191C6.97577 4.9912 7.01315 4.6314 7.05861 4.50222C7.10413 4.37311 7.16543 4.26741 7.19479 4.26741C7.28846 4.26741 7.5133 4.63366 7.64741 5.00448C7.78566 5.38682 7.8392 6.43534 7.73889 6.7957L7.71466 6.88272C7.70287 6.92504 7.65035 6.93972 7.61832 6.90964L7.53271 6.8292C7.15095 6.47053 6.97516 5.79502 6.97552 5.30191ZM24.4596 8.46801C24.4835 8.32946 24.5881 8.20481 24.7919 7.94561C25.0021 7.67836 25.1959 7.47322 25.2226 7.48975C25.3012 7.53828 25.6517 8.51498 25.7852 9.05762C25.9898 9.8888 26.0602 10.6202 26.0202 11.4997C25.9474 13.097 25.4157 14.5695 24.3109 16.233C23.7582 17.0652 22.9987 17.9615 21.4792 19.5745C19.9109 21.2394 19.7252 21.4444 19.2244 22.0652C17.7283 23.9201 16.9638 25.7269 16.9623 27.4119C16.9611 28.5983 17.3233 29.7996 18.0034 30.8652C18.1193 31.0468 18.214 31.2088 18.214 31.2253C18.214 31.2419 16.7489 31.2554 14.9582 31.2554C13.1674 31.2554 11.7023 31.2422 11.7023 31.226C11.7023 31.2099 11.9105 30.7661 12.165 30.2398C12.643 29.2513 12.8364 28.7627 13.5724 26.6844C15.1642 22.1889 16.3991 20.2722 19.2268 17.9079C20.5575 16.7954 21.9296 15.7163 23.0892 14.4193C23.2832 14.2023 23.4699 13.9786 23.6383 13.7412C24.0554 13.1534 24.421 12.4386 24.6381 11.7815C24.7938 11.31 24.8141 11.1563 24.8157 10.4352C24.8168 9.95151 24.7864 9.53747 24.6156 9.08494L24.615 9.08339C24.4937 8.76208 24.4355 8.60795 24.4596 8.46801Z" fill='white'/>
<path d="M27.4806 3.78977C26.5168 4.19058 25.8789 4.86879 25.7196 5.66196C25.6272 6.12213 25.6874 6.45901 25.862 6.45901C26.2696 6.45901 27.2964 5.67999 27.648 5.10397C27.8329 4.80116 28.0441 4.13447 28.0441 3.85382C28.0441 3.5954 27.9686 3.58682 27.4806 3.78977Z" fill='white'/>
<path d="M19.6877 0.392974C18.9025 1.3224 18.9073 3.21613 19.6972 4.13905L19.9042 4.3809C19.9144 4.39278 19.9194 4.40825 19.9181 4.42383L19.8767 4.91262C19.8233 5.54442 19.6537 6.34661 19.4356 6.99902C19.0487 8.1565 18.0544 9.88511 16.973 11.2805C16.3883 12.035 14.9928 13.7331 14.7155 14.0332C14.6915 14.0592 14.6483 14.1039 14.6269 14.132L14.0288 14.917L13.6569 15.4939C13.4523 15.8111 13.2458 16.1463 13.198 16.2387L13.1521 16.3275C13.1327 16.3649 13.0814 16.3702 13.0548 16.3375L12.7041 15.9061C12.2561 15.3549 11.6415 14.7899 10.8226 14.1763L10.3049 13.7883C10.2935 13.7798 10.2857 13.7675 10.2827 13.7536L9.98818 12.3557C9.4484 9.79381 9.37602 9.49939 9.20803 9.18286C8.98957 8.77109 7.54573 7.3292 6.68744 6.66565L6.04224 6.16686C6.03056 6.15783 6.02273 6.14471 6.02032 6.13014L5.95031 5.70623C5.85476 5.12733 5.64501 4.72295 5.22889 4.31494C4.90236 3.99484 3.90551 3.34017 3.84177 3.40392C3.8243 3.42139 3.77954 3.60868 3.74228 3.8202C3.55501 4.88344 4.17074 6.03409 5.20334 6.55075C5.44665 6.67247 5.70224 6.7721 5.7713 6.7721C5.84036 6.7721 6.0972 6.9334 6.34201 7.13052C7.02818 7.68299 8.50796 9.15493 8.64295 9.41924C8.70938 9.54923 8.83185 9.98599 8.91513 10.3898C8.9984 10.7936 9.16576 11.5592 9.28698 12.091C9.4082 12.623 9.49586 13.0697 9.48177 13.0838C9.43581 13.1297 8.03498 12.055 7.57441 11.6205C6.96225 11.043 6.44933 10.2615 6.22975 9.57177C6.061 9.04193 5.86588 8.94753 5.44978 8.58799C5.17085 8.34692 4.91557 8.14967 4.88264 8.14967C4.78565 8.14967 4.72072 8.69194 4.72523 9.46463C4.73199 10.6236 5.03829 11.5275 5.86484 12.8274C5.94498 12.9535 5.9056 12.9454 5.40752 12.7335C4.66681 12.4183 3.58763 11.5488 3.52658 11.2179C3.47562 10.9419 3.25152 10.5484 3.02042 10.3292C2.79151 10.112 2.2357 9.85856 1.81207 9.77822C1.3066 9.68235 0.181641 9.69513 0.181641 9.79675C0.181641 10.0035 0.536591 10.5544 0.866683 10.86C1.3858 11.3407 2.14009 11.6562 2.76997 11.6562C2.98492 11.6562 3.06663 11.7047 3.43085 12.0483C4.13887 12.7163 4.60414 13.0344 5.33639 13.3517C6.57956 13.8901 6.83183 14.0513 7.31482 14.6158C7.55531 14.8968 7.74152 15.1372 7.72869 15.1501L8.40421 15.8829L8.81714 16.3525C10.9795 18.8119 12.3581 20.9308 12.9263 22.6679C12.9842 22.845 13.0514 22.9899 13.0757 22.9899C13.0999 22.9899 13.2157 22.7716 13.3328 22.5047C13.8037 21.4318 14.671 20.0042 15.2285 19.3841C15.4676 19.1181 15.5305 18.9873 15.6685 18.4688C16.0716 16.9542 16.6988 15.5955 17.851 13.7412C18.2791 13.0522 18.3212 13.008 20.2057 11.2678C22.7386 8.92888 22.9722 8.7044 23.1924 8.39801C23.2953 8.25468 23.5303 7.97823 23.7146 7.78355C24.5194 6.93315 24.9135 5.97235 24.9135 4.86046C24.9135 4.25326 24.8 3.74687 24.6117 3.51431L24.5424 3.42869C24.5196 3.40057 24.477 3.39967 24.4531 3.4268L24.2019 3.71156C23.2079 4.83892 22.7958 6.00961 22.967 7.21969L23.0434 7.75926C23.046 7.77705 23.0402 7.795 23.0277 7.80795L22.8065 8.03828C22.674 8.17629 22.0302 8.77578 21.3759 9.37058C20.7216 9.96532 19.9831 10.6497 19.7348 10.8914L19.5319 11.0888C19.4847 11.1348 19.4093 11.0796 19.4389 11.0207L19.5237 10.8517C20.5876 8.73201 20.9738 6.77373 20.6895 4.94092C20.5802 4.23623 20.5802 4.23604 20.7181 3.89171C20.9245 3.37649 20.9515 2.71995 20.7921 2.08971C20.6583 1.56053 20.2522 0.66567 20.0054 0.356154L19.9107 0.237325C19.8877 0.208505 19.8441 0.207883 19.8203 0.236037L19.6877 0.392974Z" fill='white'/>
<path d="M13.5117 29.438H16.4291L16.7532 30.4317H13.1875L13.5117 29.438Z" fill='white'/>
<path d="M14.0126 28.0356H16.1599L16.3746 28.6786H13.7441L14.0126 28.0356Z" fill='white'/>
<path d="M14.5146 26.749H16.0957L16.3427 27.2751H14.2676L14.5146 26.749Z" fill='white'/>
<path d="M14.9709 25.5508H16.2848L16.49 25.9892H14.7656L14.9709 25.5508Z" fill='white'/>
<path d="M15.4307 24.4692H16.4996L16.6666 24.7907H15.2637L15.4307 24.4692Z" fill='white'/>
<circle cx="19.6468" cy="30.6068" r="0.672229" fill='white'/>
</svg>