<svg width="20" height="20" viewBox="0 0 20 20" fill="none" xmlns="http://www.w3.org/2000/svg">
<path d="M7.63867 0.543945C9.07562 0.185265 10.5756 0.159316 12.0244 0.466797C13.473 0.774281 14.8327 1.40709 16 2.31836C17.1674 3.22979 18.112 4.39565 18.7617 5.72656C19.4114 7.05745 19.7494 8.51898 19.75 10C19.7504 11.6831 19.3151 13.3378 18.4863 14.8027C17.6575 16.2677 16.4634 17.4937 15.0205 18.3604C13.5775 19.227 11.9337 19.7056 10.251 19.749C8.56856 19.7923 6.90352 19.3993 5.41797 18.6084L2.22559 19.6719C1.96129 19.76 1.67741 19.773 1.40625 19.709C1.13512 19.645 0.887423 19.5065 0.69043 19.3096C0.493455 19.1126 0.355019 18.8649 0.291016 18.5938C0.227025 18.3226 0.239986 18.0387 0.328125 17.7744L1.3916 14.582C0.696251 13.2745 0.307791 11.8257 0.255859 10.3457C0.203943 8.86565 0.48973 7.3931 1.0918 6.04004C1.69392 4.68691 2.59712 3.4884 3.73145 2.53613C4.86568 1.58404 6.20188 0.902593 7.63867 0.543945ZM11.6064 1.91016C10.3652 1.66375 9.08352 1.70621 7.86133 2.03418C6.63923 2.3622 5.50864 2.96707 4.55762 3.80176C3.60659 4.63651 2.86072 5.67934 2.37695 6.84863C1.89321 8.01795 1.68426 9.28321 1.76758 10.5459C1.85096 11.8085 2.22424 13.0353 2.85742 14.1309C2.91045 14.2228 2.94345 14.3251 2.9541 14.4307C2.96473 14.5363 2.95262 14.6435 2.91895 14.7441L1.75 18.25L5.25586 17.0811C5.33214 17.055 5.41257 17.0411 5.49316 17.041C5.62478 17.0413 5.75429 17.0766 5.86816 17.1426C7.12235 17.8682 8.54614 18.251 9.99512 18.252C11.4439 18.2528 12.8671 17.8714 14.1221 17.1475C15.3772 16.4234 16.42 15.3818 17.1445 14.127C17.869 12.8722 18.2503 11.4489 18.25 10C18.2496 8.73468 17.9583 7.48626 17.3984 6.35156C16.8384 5.21676 16.0247 4.22514 15.0205 3.45508C14.0163 2.68501 12.8477 2.15661 11.6064 1.91016ZM13 10.75C13.1989 10.75 13.3896 10.8291 13.5303 10.9697C13.6709 11.1104 13.75 11.3011 13.75 11.5C13.75 11.6989 13.6709 11.8896 13.5303 12.0303C13.3896 12.1709 13.1989 12.25 13 12.25H7C6.80111 12.25 6.61037 12.1709 6.46973 12.0303C6.3291 11.8896 6.25002 11.6989 6.25 11.5C6.25 11.3011 6.3291 11.1104 6.46973 10.9697C6.61038 10.8291 6.80109 10.75 7 10.75H13ZM13 7.75C13.1989 7.75 13.3896 7.82907 13.5303 7.96973C13.6709 8.11037 13.75 8.30111 13.75 8.5C13.75 8.69888 13.6709 8.88964 13.5303 9.03027C13.3896 9.1709 13.1989 9.25 13 9.25H7C6.80111 9.25 6.61037 9.1709 6.46973 9.03027C6.3291 8.88964 6.25002 8.69888 6.25 8.5C6.25 8.30111 6.3291 8.11037 6.46973 7.96973C6.61038 7.82907 6.80109 7.75 7 7.75H13Z" fill="white"/>
<path d="M7.63867 0.543945C9.07562 0.185265 10.5756 0.159316 12.0244 0.466797C13.473 0.774281 14.8327 1.40709 16 2.31836C17.1674 3.22979 18.112 4.39565 18.7617 5.72656C19.4114 7.05745 19.7494 8.51898 19.75 10C19.7504 11.6831 19.3151 13.3378 18.4863 14.8027C17.6575 16.2677 16.4634 17.4937 15.0205 18.3604C13.5775 19.227 11.9337 19.7056 10.251 19.749C8.56856 19.7923 6.90352 19.3993 5.41797 18.6084L2.22559 19.6719C1.96129 19.76 1.67741 19.773 1.40625 19.709C1.13512 19.645 0.887423 19.5065 0.69043 19.3096C0.493455 19.1126 0.355019 18.8649 0.291016 18.5938C0.227025 18.3226 0.239986 18.0387 0.328125 17.7744L1.3916 14.582C0.696251 13.2745 0.307791 11.8257 0.255859 10.3457C0.203943 8.86565 0.48973 7.3931 1.0918 6.04004C1.69392 4.68691 2.59712 3.4884 3.73145 2.53613C4.86568 1.58404 6.20188 0.902593 7.63867 0.543945ZM11.6064 1.91016C10.3652 1.66375 9.08352 1.70621 7.86133 2.03418C6.63923 2.3622 5.50864 2.96707 4.55762 3.80176C3.60659 4.63651 2.86072 5.67934 2.37695 6.84863C1.89321 8.01795 1.68426 9.28321 1.76758 10.5459C1.85096 11.8085 2.22424 13.0353 2.85742 14.1309C2.91045 14.2228 2.94345 14.3251 2.9541 14.4307C2.96473 14.5363 2.95262 14.6435 2.91895 14.7441L1.75 18.25L5.25586 17.0811C5.33214 17.055 5.41257 17.0411 5.49316 17.041C5.62478 17.0413 5.75429 17.0766 5.86816 17.1426C7.12235 17.8682 8.54614 18.251 9.99512 18.252C11.4439 18.2528 12.8671 17.8714 14.1221 17.1475C15.3772 16.4234 16.42 15.3818 17.1445 14.127C17.869 12.8722 18.2503 11.4489 18.25 10C18.2496 8.73468 17.9583 7.48626 17.3984 6.35156C16.8384 5.21676 16.0247 4.22514 15.0205 3.45508C14.0163 2.68501 12.8477 2.15661 11.6064 1.91016ZM13 10.75C13.1989 10.75 13.3896 10.8291 13.5303 10.9697C13.6709 11.1104 13.75 11.3011 13.75 11.5C13.75 11.6989 13.6709 11.8896 13.5303 12.0303C13.3896 12.1709 13.1989 12.25 13 12.25H7C6.80111 12.25 6.61037 12.1709 6.46973 12.0303C6.3291 11.8896 6.25002 11.6989 6.25 11.5C6.25 11.3011 6.3291 11.1104 6.46973 10.9697C6.61038 10.8291 6.80109 10.75 7 10.75H13ZM13 7.75C13.1989 7.75 13.3896 7.82907 13.5303 7.96973C13.6709 8.11037 13.75 8.30111 13.75 8.5C13.75 8.69888 13.6709 8.88964 13.5303 9.03027C13.3896 9.1709 13.1989 9.25 13 9.25H7C6.80111 9.25 6.61037 9.1709 6.46973 9.03027C6.3291 8.88964 6.25002 8.69888 6.25 8.5C6.25 8.30111 6.3291 8.11037 6.46973 7.96973C6.61038 7.82907 6.80109 7.75 7 7.75H13Z" stroke="white"/>
</svg>
